<?xml version="1.0" standalone="no"?>
<!DOCTYPE svg PUBLIC "-//W3C//DTD SVG 20010904//EN"
 "http://www.w3.org/TR/2001/REC-SVG-20010904/DTD/svg10.dtd">
<svg version="1.0" xmlns="http://www.w3.org/2000/svg"
 width="1074.000000pt" height="1074.000000pt" viewBox="0 0 1074.000000 1074.000000"
 preserveAspectRatio="xMidYMid meet">
<metadata>
Created by potrace 1.14, written by Peter Selinger 2001-2017
</metadata>
<g transform="translate(0.000000,1074.000000) scale(0.100000,-0.100000)"
fill="#000000" stroke="none">
<path d="M2599 8236 c-2 -2 -31 -6 -64 -10 -99 -10 -132 -15 -253 -42 -65 -14
-127 -27 -138 -29 -50 -11 -262 -89 -356 -131 -199 -89 -419 -221 -583 -348
-41 -32 -49 -38 -145 -121 -201 -172 -457 -474 -619 -734 -110 -174 -251 -495
-342 -776 -25 -75 -75 -314 -77 -365 -1 -8 -5 -49 -9 -90 -9 -94 -9 -729 0
-830 11 -116 19 -182 22 -200 2 -9 6 -41 10 -71 5 -44 33 -201 50 -281 28
-132 144 -454 225 -623 144 -301 372 -557 655 -736 39 -24 80 -50 90 -57 44
-28 245 -123 315 -148 137 -49 306 -95 400 -110 19 -3 41 -7 48 -10 75 -25
521 -25 672 0 14 3 48 7 75 11 41 5 140 21 305 52 14 2 45 9 70 14 25 6 53 12
64 14 45 10 219 57 296 81 193 59 423 122 550 149 167 36 454 85 595 101 63 8
65 9 65 43 0 42 29 130 60 186 45 77 158 189 252 248 82 51 251 137 270 137 8
0 18 4 24 9 16 14 264 90 349 107 11 2 43 8 70 14 73 14 104 19 165 26 30 3
66 8 80 11 44 8 491 10 590 2 103 -9 171 -17 210 -24 14 -3 34 -7 45 -9 177
-35 312 -97 385 -177 40 -43 85 -127 96 -179 4 -19 9 -38 10 -42 1 -5 2 -30 3
-56 l1 -49 168 0 c287 0 471 -20 737 -78 61 -13 126 -27 145 -30 19 -3 42 -8
50 -10 8 -3 33 -7 55 -10 22 -3 49 -7 61 -9 12 -2 45 -7 75 -11 30 -3 61 -8
69 -10 8 -2 49 -7 90 -10 41 -4 93 -9 115 -11 57 -6 431 -6 485 0 25 3 70 8
101 11 31 3 67 8 80 10 13 3 38 8 54 11 291 52 568 195 794 409 228 216 409
548 490 895 21 86 25 110 36 190 l6 45 -48 -80 c-256 -419 -563 -709 -903
-856 -85 -37 -210 -76 -272 -85 -18 -2 -55 -8 -83 -12 -97 -14 -645 -4 -697
12 -7 3 -40 7 -73 10 -248 23 -525 96 -1115 295 -162 55 -306 102 -320 105
-14 3 -68 17 -120 30 -93 25 -262 61 -330 72 -19 2 -46 7 -60 9 -14 2 -43 7
-65 10 -22 2 -53 7 -70 9 -184 26 -798 26 -956 1 -13 -2 -49 -6 -79 -9 -30 -4
-68 -8 -85 -11 -16 -3 -43 -7 -60 -9 -71 -10 -169 -27 -174 -31 -4 -2 -25 -6
-48 -10 -116 -17 -452 -110 -607 -167 -119 -44 -237 -89 -271 -104 -16 -7
-100 -40 -185 -74 -85 -33 -168 -66 -185 -74 -16 -8 -129 -55 -250 -104 -121
-50 -292 -121 -380 -157 -463 -193 -826 -275 -1190 -269 -141 2 -223 10 -380
40 -68 12 -276 67 -360 95 -49 17 -149 59 -222 94 -437 213 -768 569 -939
1007 -30 77 -75 234 -87 308 -3 14 -12 63 -20 110 -34 190 -50 333 -50 445 0
85 13 317 18 325 2 3 6 29 10 59 9 72 59 266 94 366 207 583 639 1066 1236
1381 356 188 716 304 1075 348 113 14 403 14 500 1 400 -54 746 -205 1014
-442 27 -24 50 -42 52 -41 6 6 -28 176 -48 243 -134 438 -474 710 -1002 801
-38 7 -400 16 -407 10z"/>
</g>
</svg>
